<?xml version="1.0" encoding="UTF-8"?>
<svg clip-rule="evenodd" fill-rule="evenodd" stroke-linejoin="round" stroke-miterlimit="2" version="1.1" viewBox="0 0 214 291" xml:space="preserve" xmlns="http://www.w3.org/2000/svg"><g transform="matrix(1.2244 0 0 1.2244 -488.44 -165.98)"><ellipse cx="488.29" cy="365.52" rx="40.616" ry="7.676" fill="#5b4338"/><path d="m478.62 284.49s6.252-27.935-9.242-32.962l3.481 3.614s7.284 0.516 3.757 28.309l2.004 1.039z" fill="#936953" fill-rule="nonzero"/><path d="m501.37 280.34s2.37-20.696 8.179-26.74l-1.016-0.571s-7.192 12.381-9.715 25.636l2.552 1.675z" fill="#936953" fill-rule="nonzero"/><path d="m502.74 267.41s-5.797-13.487-3.063-17.751l9e-3 1.245s-0.011 8.993 3.943 14.017l-0.889 2.489z" fill="#936953" fill-rule="nonzero"/><path d="m499.02 250.29c9e-3 -2.727 1.061-5.365 1.991-7.167-0.935 1.786-1.996 4.425-1.991 7.167z" fill="none"/><g fill-rule="nonzero"><path d="m501.01 243.12c0.571-1.11 1.144-1.933 1.353-2.235-5.082 4.001-8.062 8.282-6.32 10.525 0.74 0.953 1.97 1.437 3.307 1.42-0.235-0.842-0.335-1.698-0.33-2.542-6e-3 -2.742 1.055-5.381 1.99-7.168z" fill="#6daf5c"/><path d="m499.55 252.82c1.762-0.091 3.683-1.042 4.926-2.93 2.227-3.383-2.043-8.92-2.111-9.009-4.157 7.257-2.96 11.477-2.815 11.939z" fill="#6daf5c"/><path d="m502.36 240.88c-0.015 0.014 0.013-0.011 0 0-0.209 0.302-0.781 1.125-1.353 2.235 0.637-1.214 1.215-2.042 1.353-2.235z" fill="#7fc675"/><path d="m499.55 252.82s-1.553-4.146 2.814-11.939c0 0-4.626 6.239-3.014 11.945l0.2-6e-3z" fill="#d0e5b2"/><path d="m502.36 240.88s-4.167 6.619-2.814 11.939c0 1e-3 7.969 0.116 2.814-11.939z" fill="#6daf5c"/></g><path d="m509.95 251.58c1.853-2.712 4.335-4.689 6.172-5.908-1.831 1.201-4.319 3.174-6.172 5.908z" fill="none"/><g fill-rule="nonzero"><path d="m516.12 245.67c1.127-0.753 2.066-1.218 2.406-1.387-6.072 0.831-10.941 3.253-11.305 6.563-0.158 1.412 0.326 2.658 1.224 3.468 0.417-0.979 0.927-1.896 1.503-2.736 1.853-2.734 4.341-4.707 6.172-5.908z" fill="#6daf5c"/><path d="m508.58 254.44c1.224 1.005 3.137 1.248 5.242 0.138 3.762-1.99 4.686-10.159 4.701-10.287-7.661 4.651-9.726 9.603-9.943 10.149z" fill="#6daf5c"/><path d="m518.52 244.29c-0.016 1e-3 0.018-2e-3 0 0-0.34 0.168-1.279 0.633-2.406 1.387 1.242-0.82 2.185-1.28 2.406-1.387z" fill="#7fc675"/><path d="m508.58 254.44s1.779-5.092 9.943-10.149c0 0-7.283 3.344-10.081 10.031l0.138 0.118z" fill="#d0e5b2"/><path d="m518.52 244.29s-7.236 4.01-9.943 10.149c0 0 5.191 5.058 9.943-10.149z" fill="#6daf5c"/></g><path d="m482.87 304.12s-7.597-19.585-17.649-23.566v1.013s13.275 10.534 16.492 30.571l1.157-8.018z" fill="#936953" fill-rule="nonzero"/><path d="m468.99 289.33c-2.9 1.645-4.787 3.653-5.889 5.108 1.085-1.448 2.96-3.458 5.889-5.108z" fill="none"/><g fill-rule="nonzero"><path d="m463.1 294.44c-0.676 0.896-1.051 1.62-1.186 1.883-0.228-4.429 1.709-8.191 5.638-8.85 1.675-0.279 3.276-0.083 4.44 0.458-1.104 0.414-2.104 0.889-3.004 1.4-2.929 1.651-4.804 3.661-5.888 5.109z" fill="#92cb78"/><path d="m472.16 288.01c1.463 0.752 2.147 2.089 1.231 3.722-1.641 2.921-11.328 4.559-11.48 4.585 4.066-6.02 9.633-8.087 10.249-8.307z" fill="#6daf5c"/><path d="m461.91 296.32c-2e-3 -0.013 0 0.013 0 0 0.135-0.264 0.51-0.987 1.186-1.883-0.737 0.986-1.103 1.711-1.186 1.883z" fill="#7fc675"/><path d="m472.16 288.01s-5.796 1.879-10.249 8.308c0 0 2.562-5.594 10.078-8.391l0.171 0.083z" fill="#d0e5b2"/><path d="m461.91 296.32s3.376-5.641 10.249-8.308c0 0 7.171 3.095-10.249 8.308z" fill="#92cb78"/></g><path d="m463.14 280.86c-2.758 0.191-5.219 1.332-6.857 2.304 1.621-0.973 4.079-2.123 6.857-2.304z" fill="none"/><g fill-rule="nonzero"><path d="m456.28 283.16c-1.007 0.599-1.725 1.176-1.986 1.388 3.015-4.914 6.749-7.926 9.373-6.488 1.119 0.615 1.861 1.702 2.115 2.924-0.9-0.155-1.787-0.188-2.645-0.127-2.777 0.18-5.235 1.33-6.857 2.303z" fill="#92cb78"/><path d="m465.82 281.17c0.271 1.615-0.305 3.435-1.965 4.7-2.973 2.263-9.455-1.262-9.559-1.319 6.508-4.287 11.03-3.481 11.524-3.381z" fill="#6daf5c"/><path d="m454.3 284.55c6e-3 -0.012-0.011 0.015 0 0 0.262-0.211 0.979-0.789 1.986-1.388-1.103 0.665-1.818 1.249-1.986 1.388z" fill="#7fc675"/><path d="m465.82 281.17s-4.52-1.137-11.523 3.38c0 0 5.375-4.65 11.488-3.564l0.035 0.184z" fill="#d0e5b2"/><path d="m454.3 284.55s5.856-4.254 11.523-3.38c0 0 1.744 7.272-11.523 3.38z" fill="#6daf5c"/></g><path d="m464.42 278.2c-2.255-2.83-5.213-4.83-7.394-6.045 2.168 1.198 5.135 3.19 7.394 6.045z" fill="none"/><g fill-rule="nonzero"><path d="m457.02 272.15c-1.34-0.747-2.445-1.198-2.848-1.363 7.078 0.551 12.824 2.891 13.377 6.46 0.236 1.521-0.273 2.897-1.283 3.83-0.521-1.042-1.152-2.002-1.853-2.882-2.258-2.854-5.225-4.846-7.393-6.045z" fill="#92cb78"/><path d="m466.12 281.21c-1.384 1.162-3.596 1.536-6.08 0.453-4.444-1.938-5.838-10.737-5.859-10.878 9.072 4.6 11.668 9.846 11.939 10.425z" fill="#6daf5c"/><path d="m454.18 270.79c0.019 5e-3 -0.022 0 0 0 0.402 0.165 1.508 0.617 2.848 1.363-1.479-0.812-2.585-1.259-2.848-1.363z" fill="#7fc675"/><path d="m466.12 281.21s-2.265-5.416-11.939-10.425c0 0 8.584 3.203 12.094 10.291l-0.155 0.134z" fill="#d0e5b2"/><path d="m454.18 270.79s8.556 3.929 11.939 10.425c0 0-5.83 5.787-11.939-10.425z" fill="#92cb78"/></g><path d="m529.94 255.08c-2.129-3.068-5.209-5.429-7.52-6.915 2.301 1.469 5.391 3.819 7.52 6.915z" fill="none"/><g fill-rule="nonzero"><path d="m522.42 248.16c-1.42-0.915-2.619-1.508-3.056-1.725 8.065 1.524 14.3 4.605 14.349 8.153 0.02 1.513-0.8 2.781-2.115 3.548-0.428-1.086-0.996-2.108-1.658-3.062-2.129-3.095-5.219-5.445-7.52-6.914z" fill="#92cb78"/><path d="m531.4 258.25c-1.785 0.935-4.395 0.991-7.08-0.41-4.8-2.507-4.949-11.262-4.952-11.402 9.694 5.744 11.815 11.209 12.032 11.812z" fill="#6daf5c"/><path d="m519.36 246.44c0.023 5e-3 -0.024-4e-3 0 0 0.437 0.216 1.636 0.81 3.056 1.725-1.566-0.999-2.77-1.587-3.056-1.725z" fill="#7fc675"/><path d="m531.4 258.25s-1.712-5.588-12.032-11.812c0 0 9.361 4.315 12.233 11.701l-0.201 0.111z" fill="#d0e5b2"/><path d="m519.36 246.44s9.21 5.017 12.032 11.812c1e-3 0-7.671 4.816-12.032-11.812z" fill="#92cb78"/></g><g fill="#936953" fill-rule="nonzero"><path d="m507.95 209.52c-0.053 0.053-0.236 0.254-0.535 0.622-0.533 0.648-1.418 1.804-2.504 3.529-8e-3 0.018-0.018 0.035-0.035 0.053-0.288 0.464-0.596 0.963-0.91 1.515-0.543 0.919-1.111 1.961-1.699 3.126-8e-3 0 0 8e-3 0 8e-3 -0.086 0.158-0.166 0.324-0.244 0.491-0.193 0.376-0.385 0.771-0.578 1.173 0 9e-3 -0.01 0.018-0.01 0.026-0.051 0.114-0.104 0.228-0.165 0.341-0.01 9e-3 -0.01 0.018-0.01 0.018-0.122 0.271-0.244 0.543-0.376 0.823-0.026 0.061-0.053 0.123-0.078 0.184 0 0 0 9e-3 -0.01 0.018-0.104 0.236-0.21 0.481-0.324 0.735 0 0 0 9e-3 -9e-3 0.018-0.279 0.657-0.568 1.349-0.857 2.067-0.019 0.043-0.044 0.096-0.062 0.148 2.723-6.05-8.914 29.604-7.749 56.871 9e-3 0.341 0.026 0.683 0.044 1.024 0 0 0.035 2.04 0.105 5.595 0.289 13.738 0.839 50.58 2.004 78.416h-13.549c0.289-20.131 1.344-45.808-1.179-63.811-0.454-3.258-0.98-6.278-1.593-8.992-0.264-1.191-0.553-2.329-0.85-3.397-3.091-10.989-12.399-21.094-21.549-28.781v-9e-3c-0.569-0.473-1.129-0.945-1.699-1.4 0-9e-3 0-9e-3 -8e-3 -9e-3 -0.07-0.062-0.141-0.114-0.211-0.167v-9e-3c-1.068-0.867-2.127-1.699-3.17-2.487-3.354-2.565-6.514-4.737-9.115-6.427l-8e-3 -9e-3c-0.754-0.49-1.463-0.945-2.111-1.348-0.035-0.026-0.07-0.044-0.105-0.061-0.017-0.018-0.043-0.035-0.061-0.044h-9e-3v-9e-3c-0.096-0.061-0.192-0.123-0.288-0.184-0.578-0.35-1.104-0.674-1.577-0.963-1.182-0.709-2.022-1.191-2.425-1.41-0.132-0.079-0.219-0.131-0.254-0.149 0.043 0 0.176 0.035 0.395 0.087h8e-3c0.631 0.167 1.971 0.552 3.906 1.296 8e-3 0 8e-3 0 0.017 9e-3 0.403 0.149 0.823 0.315 1.278 0.5 0.01 8e-3 0.01 8e-3 0.018 8e-3 0.184 0.079 0.367 0.158 0.561 0.228 0.123 0.061 0.254 0.122 0.395 0.175 8e-3 9e-3 0.025 0.018 0.043 0.018 0.045 0.026 0.088 0.043 0.132 0.061s0.087 0.044 0.14 0.062h0.01c0.621 0.28 1.286 0.587 1.987 0.919 0.034 0.018 0.069 0.035 0.104 0.052 7.854 3.783 20.148 11.471 34.141 26.628 0.718 0.77 1.427 1.567 2.153 2.381 0.735 0.823 1.472 1.672 2.216 2.54 0 0 1.629-12.381 5.367-27.74 0.351-1.471 0.727-2.959 1.13-4.474 2.232-8.537 5.087-17.679 8.651-25.945 0.035-0.087 0.069-0.166 0.104-0.245 0.446-1.034 0.902-2.058 1.375-3.056h9e-3c0.026-0.07 0.052-0.131 0.087-0.192v-9e-3c0.054-0.114 0.105-0.228 0.158-0.333 0-9e-3 9e-3 -0.018 9e-3 -0.018 0.131-0.28 0.262-0.561 0.402-0.832 0-9e-3 9e-3 -0.018 9e-3 -0.026 9e-3 -9e-3 9e-3 -0.018 0.019-0.026 0.078-0.166 0.156-0.333 0.235-0.499 0.079-0.158 0.167-0.324 0.245-0.481 0.176-0.359 0.359-0.709 0.543-1.06 0.613-1.2 1.252-2.364 1.909-3.494 0.069-0.131 0.148-0.254 0.228-0.376 0.07-0.132 0.148-0.263 0.229-0.385v-9e-3c8e-3 -0.018 0.017-0.035 0.025-0.044s8e-3 -0.018 0.018-0.026c0.088-0.157 0.184-0.315 0.279-0.464l0.01-9e-3c9e-3 -9e-3 9e-3 -0.018 9e-3 -0.026 0.718-1.173 1.454-2.303 2.216-3.38 0.201-0.289 0.402-0.569 0.604-0.84 0.176-0.246 0.351-0.473 0.525-0.709 0.025-0.035 0.044-0.062 0.069-0.087 0.657-0.841 0.745-0.447 0.728 0.28-0.01 0.578-0.088 1.357 0.025 1.909v8e-3c0.019 0.097 0.044 0.184 0.07 0.263 9e-3 8e-3 9e-3 8e-3 9e-3 0.018 0 8e-3 0.01 8e-3 0.01 0.018 0.087 0.192 0.219 0.315 0.429 0.324 0.138 0.015 3.007 0.589 0.524-0.134z"/><path d="m491.69 288.01s28.24-12.67 41.469-32.868l-0.881-0.898s-13.915 19.436-41.615 27.367l1.027 6.399z"/><path d="m489.97 256.53s-14.616-12.488-26.026-29.765l-0.848-2.143s22.02 25.444 28.137 26.167l-1.263 5.741z"/></g><path d="m474.82 253.19c-0.535-3.557-2.038-6.693-3.269-8.772 1.233 2.06 2.745 5.191 3.269 8.772z" fill="none"/><g fill-rule="nonzero"><path d="m471.56 244.42c-0.756-1.276-1.455-2.184-1.711-2.517 5.588 3.719 9.236 8.43 8.016 11.871-0.518 1.467-1.59 2.461-2.861 2.835 0.061-1.168-0.011-2.314-0.175-3.417-0.525-3.581-2.037-6.712-3.269-8.772z" fill="#6daf5c"/><path d="m474.81 256.66c-1.691 0.406-3.693-0.269-5.235-2.369-2.761-3.757 0.225-12.25 0.271-12.39 5.335 8.247 5.01 14.117 4.964 14.759z" fill="#6daf5c"/><path d="m469.84 241.9c0.016 0.014-0.018-8e-3 0 0 0.256 0.333 0.955 1.241 1.711 2.517-0.837-1.398-1.542-2.302-1.711-2.517z" fill="#7fc675"/><path d="m474.81 256.66s0.675-5.874-4.965-14.759c0 0 5.59 6.777 5.154 14.706l-0.189 0.053z" fill="#d0e5b2"/><path d="m469.84 241.9s5.223 7.411 4.965 14.759c0 0-7.538 2.511-4.965-14.759z" fill="#6daf5c"/></g><path d="m472.54 254.16c-3.076-1.86-6.45-2.705-8.837-3.085 2.372 0.365 5.749 1.202 8.837 3.085z" fill="none"/><g fill-rule="nonzero"><path d="m463.7 251.08c-1.465-0.236-2.61-0.277-3.029-0.29 6.432-1.926 12.387-1.726 14.256 1.408 0.796 1.339 0.878 2.798 0.352 4.013-0.858-0.79-1.786-1.467-2.741-2.045-3.089-1.884-6.466-2.721-8.838-3.086z" fill="#92cb78"/><path d="m475.2 256.39c-0.766 1.56-2.562 2.673-5.164 2.518-4.655-0.273-9.286-7.998-9.361-8.119 9.753 1.157 14.061 5.153 14.525 5.601z" fill="#6daf5c"/><path d="m460.67 250.79c0.02-7e-3 -0.018 5e-3 0 0 0.419 0.013 1.564 0.054 3.029 0.29-1.61-0.251-2.759-0.286-3.029-0.29z" fill="#7fc675"/><path d="m475.2 256.39s-4.087-4.268-14.525-5.601c0 0 8.78 0.025 14.607 5.42l-0.082 0.181z" fill="#d0e5b2"/><path d="m460.67 250.79s9.04 0.71 14.525 5.601c0 0-2.877 7.401-14.525-5.601z" fill="#92cb78"/></g><path d="m534.91 252.56c2.606-2.474 5.722-4.023 7.968-4.907-2.236 0.867-5.354 2.407-7.968 4.907z" fill="none"/><g fill-rule="nonzero"><path d="m542.88 247.65c1.385-0.542 2.495-0.829 2.898-0.93-6.694-0.504-12.465 0.965-13.617 4.427-0.498 1.478-0.261 2.921 0.511 4 0.671-0.959 1.43-1.818 2.24-2.589 2.614-2.5 5.732-4.04 7.968-4.908z" fill="#6daf5c"/><path d="m532.79 255.3c1.084 1.355 3.076 2.06 5.584 1.351 4.488-1.264 7.355-9.801 7.404-9.936-9.276 3.222-12.631 8.053-12.988 8.585z" fill="#6daf5c"/><path d="m545.78 246.72c-0.018-3e-3 0.02 0 0 0-0.403 0.102-1.514 0.389-2.898 0.93 1.525-0.589 2.637-0.867 2.898-0.93z" fill="#7fc675"/><path d="m532.79 255.3s3.079-5.047 12.988-8.585c0 0-8.572 1.908-13.106 8.427l0.118 0.158z" fill="#d0e5b2"/><path d="m545.78 246.72s-8.676 2.629-12.988 8.585c0 0 4.399 6.613 12.988-8.585z" fill="#6daf5c"/></g><path d="m533.62 252.52c0.65-3.538 0.244-6.993-0.244-9.358 0.498 2.349 0.912 5.8 0.244 9.358z" fill="none"/><g fill-rule="nonzero"><path d="m533.37 243.17c-0.297-1.455-0.668-2.541-0.807-2.936 4.085 5.331 6.006 10.971 3.738 13.829-0.967 1.22-2.305 1.812-3.627 1.753 0.43-1.082 0.739-2.191 0.939-3.288 0.669-3.559 0.255-7.01-0.243-9.358z" fill="#92cb78"/><path d="m532.48 255.8c-1.727-0.163-3.407-1.449-4.184-3.935-1.395-4.452 4.188-11.518 4.271-11.632 2.376 9.533 0.165 14.977-0.087 15.567z" fill="#6daf5c"/><path d="m532.56 240.23c0.016 0.015-7e-3 -0.015 0 0 0.139 0.395 0.51 1.481 0.807 2.936-0.34-1.595-0.713-2.682-0.807-2.936z" fill="#7fc675"/><path d="m532.48 255.8s2.545-5.333 0.088-15.567c0 0 3.091 8.221 0.111 15.582l-0.199-0.015z" fill="#d0e5b2"/><path d="m532.56 240.23s2.542 8.705-0.088 15.567c1e-3 0-7.941-0.068 0.088-15.567z" fill="#92cb78"/></g><path d="m533.54 258.29c2.999 1.166 5.425 3.127 6.986 4.636-1.543-1.508-3.963-3.47-6.986-4.636z" fill="none"/><g fill-rule="nonzero"><path d="m540.53 262.93c0.955 0.928 1.602 1.734 1.838 2.028-2.071-5.755-5.42-9.954-8.689-9.513-1.395 0.187-2.491 0.958-3.091 2.033 1.032 0.171 2.023 0.456 2.956 0.815 3.023 1.167 5.443 3.129 6.986 4.637z" fill="#92cb78"/><path d="m530.5 257.64c-0.715 1.441-0.551 3.379 0.963 5.178 2.701 3.212 10.773 2.159 10.902 2.142-6.086-6.399-11.293-7.24-11.865-7.32z" fill="#6daf5c"/><path d="m542.37 264.96c-0.011-0.017 4e-3 0.018 0 0-0.236-0.294-0.883-1.1-1.838-2.028 1.046 1.024 1.688 1.835 1.838 2.028z" fill="#7fc675"/><path d="m530.5 257.64s5.285 0.522 11.865 7.319c0 0-4.747-6.344-11.78-7.479l-0.085 0.16z" fill="#d0e5b2"/><path d="m542.37 264.96s-5.375-6.138-11.865-7.319c0-1e-3 -3.799 6.306 11.865 7.319z" fill="#92cb78"/></g><path d="m461.69 222.2c-3.182-0.948-6.391-0.918-8.608-0.706 2.201-0.219 5.412-0.26 8.608 0.706z" fill="none"/><g fill-rule="nonzero"><path d="m453.08 221.5c-1.364 0.131-2.397 0.36-2.774 0.444 5.297-3.214 10.661-4.415 13.058-2.049 1.022 1.011 1.435 2.296 1.249 3.503-0.952-0.506-1.937-0.897-2.924-1.192-3.196-0.966-6.407-0.925-8.609-0.706z" fill="#6daf5c"/><path d="m464.58 223.58c-0.323 1.569-1.671 2.979-4.028 3.447-4.223 0.833-10.15-4.99-10.246-5.082 8.98-1.228 13.756 1.343 14.274 1.635z" fill="#6daf5c"/><path d="m450.3 221.94c0.016-9e-3 -0.016 9e-3 0 0 0.377-0.084 1.41-0.313 2.774-0.444-1.499 0.151-2.53 0.387-2.774 0.444z" fill="#7fc675"/><path d="m464.58 223.58s-4.642-2.866-14.274-1.635c0 0 7.85-2.013 14.307 1.454l-0.033 0.181z" fill="#d0e5b2"/><path d="m450.3 221.94s8.238-1.462 14.274 1.635c0 0-0.852 7.278-14.274-1.635z" fill="#6daf5c"/></g><path d="m461.92 226.45c-3.885 0.196-7.421 1.481-9.789 2.584 2.349-1.104 5.881-2.402 9.789-2.584z" fill="none"/><g fill-rule="nonzero"><path d="m452.13 229.04c-1.455 0.676-2.507 1.335-2.891 1.576 4.598-5.623 10.057-9.048 13.629-7.368 1.524 0.715 2.482 1.974 2.748 3.382-1.25-0.189-2.488-0.235-3.697-0.174-3.908 0.181-7.44 1.479-9.789 2.584z" fill="#92cb78"/><path d="m465.65 226.84c0.258 1.86-0.682 3.945-3.105 5.384-4.338 2.573-13.164-1.545-13.307-1.608 9.444-4.868 15.727-3.895 16.412-3.776z" fill="#6daf5c"/><path d="m449.24 230.61c0.014-0.018-0.012 0.015 0 0 0.384-0.241 1.436-0.9 2.891-1.576-1.597 0.752-2.645 1.416-2.891 1.576z" fill="#7fc675"/><path d="m465.65 226.84s-6.25-1.352-16.412 3.775c0 0 7.887-5.295 16.377-3.986l0.035 0.211z" fill="#d0e5b2"/><path d="m449.24 230.61s8.53-4.837 16.412-3.775c0-1e-3 1.904 8.378-16.412 3.775z" fill="#92cb78"/></g><path d="m462.6 220.03c-2.572-2.922-5.777-4.889-8.113-6.057 2.323 1.154 5.538 3.11 8.113 6.057z" fill="none"/><g fill-rule="nonzero"><path d="m454.49 213.97c-1.438-0.718-2.606-1.131-3.034-1.281 7.262 0.099 13.341 2.241 14.25 6.083 0.389 1.638-3e-3 3.172-0.938 4.256-0.631-1.095-1.365-2.094-2.164-3-2.575-2.948-5.79-4.904-8.114-6.058z" fill="#92cb78"/><path d="m464.62 223.19c-1.295 1.358-3.512 1.923-6.146 0.919-4.713-1.796-6.982-11.267-7.021-11.417 9.686 4.363 12.834 9.888 13.167 10.498z" fill="#6daf5c"/><path d="m451.46 212.69c0.023 0-0.02-2e-3 0 0 0.428 0.15 1.597 0.563 3.034 1.281-1.584-0.782-2.756-1.189-3.034-1.281z" fill="#7fc675"/><path d="m464.62 223.19s-2.83-5.734-13.167-10.498c0 0 9.052 2.879 13.312 10.338l-0.145 0.16z" fill="#d0e5b2"/><path d="m451.46 212.69s9.096 3.668 13.167 10.498c0 0-5.375 6.703-13.167-10.498z" fill="#92cb78"/></g><path d="m467.8 222.23c2.788-1.801 5.878-2.671 8.066-3.088-2.176 0.407-5.267 1.267-8.066 3.088z" fill="none"/><g fill-rule="nonzero"><path d="m475.87 219.14c1.347-0.255 2.401-0.323 2.786-0.349-5.983-1.603-11.469-1.255-13.107 1.686-0.699 1.255-0.735 2.605-0.218 3.711 0.771-0.752 1.605-1.402 2.473-1.961 2.799-1.821 5.89-2.681 8.066-3.087z" fill="#92cb78"/><path d="m465.41 224.36c0.75 1.416 2.437 2.394 4.832 2.182 4.286-0.38 8.348-7.629 8.413-7.745-8.963 1.334-12.83 5.139-13.245 5.563z" fill="#6daf5c"/><path d="m478.66 218.79c-0.016-3e-3 0.019 5e-3 0 0-0.385 0.025-1.439 0.093-2.786 0.349 1.482-0.274 2.538-0.337 2.786-0.349z" fill="#7fc675"/><path d="m465.41 224.36s3.655-4.05 13.245-5.563c0 0-8.098 0.262-13.325 5.397l0.08 0.166z" fill="#d0e5b2"/><path d="m478.66 218.79s-8.315 0.901-13.245 5.563c0 0 2.857 6.75 13.245-5.563z" fill="#6daf5c"/></g><path d="m474.51 238.46s2.891-9.789 0.633-11.791c-2.257-2.002-0.86 0.459-0.86 0.459s2.361 1.16-1.247 10.512l1.474 0.82z" fill="#936953" fill-rule="nonzero"/><path d="m475.19 224.34c-1.63-2.508-3.85-4.361-5.496-5.51 1.641 1.135 3.867 2.982 5.496 5.51z" fill="none"/><g fill-rule="nonzero"><path d="m469.69 218.83c-1.012-0.708-1.854-1.152-2.163-1.316 5.511 0.887 9.896 3.195 10.159 6.217 0.113 1.291-0.355 2.415-1.189 3.135-0.355-0.905-0.803-1.747-1.311-2.526-1.629-2.529-3.855-4.376-5.496-5.51z" fill="#6daf5c"/><path d="m476.37 226.97c-1.138 0.889-2.885 1.069-4.777 0.014-3.384-1.893-4.053-9.351-4.065-9.47 6.878 4.401 8.657 8.953 8.842 9.456z" fill="#6daf5c"/><path d="m467.53 217.51c0.017 4e-3 -0.015-3e-3 0 0 0.309 0.164 1.151 0.608 2.163 1.316-1.117-0.774-1.961-1.213-2.163-1.316z" fill="#7fc675"/><path d="m476.37 226.97s-1.512-4.677-8.843-9.457c0 0 6.563 3.203 8.97 9.352l-0.127 0.105z" fill="#d0e5b2"/><path d="m467.53 217.51s6.509 3.805 8.843 9.457c0-1e-3 -4.835 4.497-8.843-9.457z" fill="#6daf5c"/></g><path d="m472.86 226.7c-3.101-1.636-6.431-2.269-8.774-2.504 2.327 0.226 5.663 0.847 8.774 2.504z" fill="none"/><g fill-rule="nonzero"><path d="m464.09 224.19c-1.438-0.146-2.557-0.119-2.963-0.108 6.149-2.241 11.953-2.381 13.947 0.564 0.854 1.255 1.016 2.673 0.572 3.887-0.882-0.722-1.816-1.329-2.782-1.838-3.111-1.658-6.447-2.279-8.774-2.505z" fill="#92cb78"/><path d="m475.58 228.71c-0.656 1.558-2.346 2.743-4.883 2.741-4.546-5e-3 -9.487-7.258-9.568-7.372 9.557 0.578 13.977 4.223 14.451 4.631z" fill="#6daf5c"/><path d="m461.12 224.08c0.019-7e-3 -0.018 4e-3 0 0 0.406-0.01 1.525-0.037 2.963 0.108-1.582-0.151-2.699-0.118-2.963-0.108z" fill="#7fc675"/><path d="m475.58 228.71s-4.219-3.925-14.451-4.631c0 0 8.547-0.471 14.52 4.451l-0.069 0.18z" fill="#d0e5b2"/><path d="m461.12 224.08s8.834 0.18 14.451 4.631c0 0-2.383 7.366-14.451-4.631z" fill="#92cb78"/></g><path d="m477.09 223.38c-0.059-3.506-1.11-6.729-2.034-8.894 0.923 2.147 1.989 5.368 2.034 8.894z" fill="none"/><g fill-rule="nonzero"><path d="m475.06 214.49c-0.565-1.332-1.128-2.299-1.333-2.651 4.928 4.306 7.848 9.326 6.23 12.494-0.69 1.351-1.855 2.176-3.129 2.373 0.204-1.119 0.285-2.233 0.266-3.322-0.045-3.527-1.111-6.748-2.034-8.894z" fill="#92cb78"/><path d="m476.63 226.73c-1.682 0.176-3.532-0.729-4.754-2.958-2.188-3.983 1.784-11.811 1.847-11.935 4.101 8.65 3.035 14.28 2.907 14.893z" fill="#6daf5c"/><path d="m473.72 211.84c0.015 0.012-0.015-0.015 0 0 0.205 0.352 0.768 1.319 1.333 2.651-0.63-1.463-1.197-2.428-1.333-2.651z" fill="#7fc675"/><path d="m476.63 226.73s1.405-5.588-2.907-14.892c0 0 4.533 7.262 3.102 14.867l-0.195 0.025z" fill="#d0e5b2"/><path d="m473.72 211.84s4.102 7.828 2.907 14.892c0 0-7.603 1.463-2.907-14.892z" fill="#92cb78"/></g><path d="m478.08 227.68c2.848-0.91 5.739-0.942 7.74-0.79-1.986-0.156-4.877-0.136-7.74 0.79z" fill="none"/><g fill-rule="nonzero"><path d="m485.82 226.89c1.234 0.093 2.165 0.284 2.507 0.353-4.829-2.801-9.681-3.791-11.8-1.615-0.903 0.928-1.25 2.093-1.061 3.175 0.846-0.474 1.727-0.84 2.613-1.123 2.864-0.927 5.755-0.947 7.741-0.79z" fill="#92cb78"/><path d="m475.5 228.97c0.316 1.406 1.556 2.655 3.69 3.034 3.816 0.678 9.054-4.672 9.138-4.758-8.11-0.949-12.368 1.453-12.828 1.724z" fill="#6daf5c"/><path d="m488.33 227.24c-0.013-8e-3 0.015 8e-3 0 0-0.342-0.068-1.272-0.259-2.507-0.353 1.354 0.11 2.288 0.305 2.507 0.353z" fill="#7fc675"/><path d="m475.5 228.97s4.13-2.663 12.828-1.725c0 0-7.106-1.675-12.86 1.56l0.032 0.165z" fill="#d0e5b2"/><path d="m488.33 227.24s-7.446-1.172-12.828 1.725c0 0 0.896 6.542 12.828-1.725z" fill="#92cb78"/></g><path d="m510.43 210.24c1.977-3.002 4.659-5.22 6.648-6.591-1.981 1.354-4.672 3.565-6.648 6.591z" fill="none"/><g fill-rule="nonzero"><path d="m517.08 203.65c1.22-0.84 2.238-1.371 2.61-1.565-6.636 1.03-11.921 3.773-12.261 7.41-0.145 1.549 0.414 2.9 1.41 3.772 0.434-1.083 0.979-2.095 1.592-3.026 1.977-3.026 4.668-5.237 6.649-6.591z" fill="#92cb78"/><path d="m508.99 213.39c1.361 1.078 3.463 1.309 5.748 0.048 4.082-2.25 4.936-11.213 4.952-11.359-8.304 5.246-10.473 10.706-10.7 11.311z" fill="#6daf5c"/><path d="m519.69 202.08c-0.02 6e-3 0.019-2e-3 0 0-0.372 0.194-1.391 0.725-2.61 1.565 1.347-0.918 2.367-1.441 2.61-1.565z" fill="#7fc675"/><path d="m508.99 213.39s1.854-5.614 10.7-11.311c0 0-7.917 3.805-10.851 11.182l0.151 0.129z" fill="#d0e5b2"/><path d="m519.69 202.08s-7.854 4.533-10.7 11.311c0 0 5.784 5.443 10.7-11.311z" fill="#92cb78"/></g><path d="m502.95 221.71c3.447 1.027 6.344 2.951 8.232 4.454-1.867-1.503-4.761-3.434-8.232-4.454z" fill="none"/><g fill-rule="nonzero"><path d="m511.18 226.17c1.159 0.928 1.963 1.746 2.255 2.044-2.911-6.049-7.068-10.313-10.646-9.582-1.525 0.308-2.656 1.235-3.203 2.444 1.163 0.097 2.291 0.328 3.361 0.64 3.471 1.019 6.365 2.95 8.233 4.454z" fill="#6daf5c"/><path d="m499.51 221.26c-0.636 1.612-0.245 3.693 1.621 5.511 3.341 3.252 12.165 1.474 12.307 1.445-7.426-6.424-13.289-6.916-13.928-6.956z" fill="#6daf5c"/><path d="m513.44 228.21c-0.01-0.015 7e-3 0.017 0 0-0.292-0.298-1.096-1.116-2.255-2.044 1.272 1.024 2.067 1.848 2.255 2.044z" fill="#7fc675"/><path d="m499.51 221.26s5.91 0.144 13.928 6.956c0 0-5.937-6.474-13.849-7.138l-0.079 0.182z" fill="#d0e5b2"/><path d="m513.44 228.21s-6.615-6.199-13.928-6.956c1e-3 0-3.53 7.112 13.928 6.956z" fill="#6daf5c"/></g><path d="m508.08 215.92c2.936-2.078 6.238-3.166 8.588-3.724-2.336 0.541-5.643 1.624-8.588 3.724z" fill="none"/><g fill-rule="nonzero"><path d="m516.67 212.19c1.445-0.339 2.586-0.464 3.001-0.511-6.556-1.447-12.478-0.811-14.111 2.454-0.7 1.391-0.669 2.852-0.057 4.028 0.796-0.855 1.672-1.599 2.579-2.248 2.945-2.099 6.252-3.182 8.588-3.723z" fill="#6daf5c"/><path d="m505.6 218.34c0.876 1.496 2.754 2.474 5.336 2.13 4.621-0.619 8.673-8.657 8.739-8.787-9.642 1.872-13.648 6.178-14.075 6.657z" fill="#6daf5c"/><path d="m519.67 211.68c-0.019 0 0.018 5e-3 0 0-0.415 0.046-1.556 0.172-3.001 0.511 1.59-0.369 2.728-0.485 3.001-0.511z" fill="#7fc675"/><path d="m505.6 218.34s3.766-4.56 14.075-6.657c0 0-8.759 0.67-14.168 6.482l0.093 0.175z" fill="#d0e5b2"/><path d="m519.67 211.68s-8.962 1.374-14.075 6.657c0 0 3.415 7.169 14.075-6.657z" fill="#6daf5c"/></g><path d="m493.6 212.06c-2.457-2.081-5.339-3.278-7.407-3.931 2.057 0.641 4.94 1.829 7.407 3.931z" fill="none"/><g fill-rule="nonzero"><path d="m486.19 208.13c-1.272-0.395-2.292-0.578-2.663-0.646 6.047-0.928 11.332 0.015 12.51 3.097 0.503 1.317 0.348 2.648-0.315 3.686-0.642-0.826-1.362-1.559-2.124-2.206-2.467-2.102-5.35-3.29-7.408-3.931z" fill="#92cb78"/><path d="m495.62 214.42c-0.928 1.314-2.707 2.094-5.012 1.625-4.113-0.842-7.034-8.438-7.084-8.561 8.53 2.297 11.75 6.471 12.096 6.936z" fill="#6daf5c"/><path d="m483.52 207.48c0.02 0-0.017 3e-3 0 0 0.371 0.067 1.391 0.25 2.663 0.646-1.399-0.428-2.418-0.606-2.663-0.646z" fill="#7fc675"/><path d="m495.62 214.42s-2.982-4.394-12.096-6.936c0 0 7.844 1.144 12.194 6.783l-0.098 0.153z" fill="#d0e5b2"/><path d="m483.52 207.48s7.959 1.796 12.096 6.936c0 0-3.732 6.347-12.096-6.936z" fill="#92cb78"/></g><path d="m500.04 209.15c0.193-3.586 1.395-6.854 2.422-9.039-1.031 2.166-2.239 5.428-2.422 9.039z" fill="none"/><path d="m500.38 212.6c1.717 0.246 3.646-0.611 4.985-2.849 2.396-4.002-1.386-12.176-1.44-12.309-4.535 8.715-3.655 14.527-3.545 15.158z" fill="#6daf5c" fill-rule="nonzero"/><path d="m503.93 197.44c-0.02 0.014 0.012-0.012 0 0-0.227 0.354-0.838 1.322-1.469 2.668 0.702-1.473 1.318-2.442 1.469-2.668z" fill="#7fc675" fill-rule="nonzero"/><g fill-rule="nonzero"><path d="m502.46 200.11c0.631-1.346 1.242-2.314 1.469-2.668-5.217 4.229-8.4 9.264-6.862 12.575 0.657 1.412 1.817 2.298 3.118 2.551-0.168-1.154-0.209-2.305-0.146-3.419 0.182-3.611 1.39-6.873 2.421-9.039z" fill="#6daf5c"/><path d="m500.38 212.6s-1.232-5.778 3.545-15.158c0 0-4.924 7.272-3.744 15.126l0.199 0.032z" fill="#d0e5b2"/></g><path d="m503.93 197.44s-4.502 7.871-3.545 15.158c0 0 7.74 1.791 3.545-15.158z" fill="#6daf5c" fill-rule="nonzero"/><path d="m503.02 210.04c1.148-3.408 3.182-6.232 4.756-8.061-1.573 1.809-3.611 4.629-4.756 8.061z" fill="none"/><g fill-rule="nonzero"><path d="m507.78 201.98c0.969-1.125 1.818-1.897 2.127-2.176-6.155 2.678-10.573 6.675-9.977 10.276 0.254 1.534 1.134 2.699 2.32 3.291 0.145-1.158 0.415-2.274 0.773-3.33 1.146-3.432 3.184-6.252 4.757-8.061z" fill="#92cb78"/><path d="m502.43 213.45c1.592 0.7 3.683 0.389 5.57-1.409 3.378-3.212 1.932-12.1 1.908-12.241-6.701 7.18-7.412 13.013-7.478 13.65z" fill="#6daf5c"/><path d="m509.9 199.8c-0.019 7e-3 0.019-8e-3 0 0-0.309 0.279-1.158 1.051-2.127 2.176 1.073-1.23 1.926-1.998 2.127-2.176z" fill="#7fc675"/><path d="m502.43 213.45s0.367-5.896 7.479-13.65c0 0-6.688 5.686-7.656 13.567l0.177 0.083z" fill="#d0e5b2"/><path d="m509.9 199.8s-6.443 6.376-7.479 13.65c1e-3 0 6.977 3.8 7.479-13.65z" fill="#92cb78"/></g><path d="m496.6 217.45c-3.101-1.637-6.432-2.269-8.775-2.504 2.327 0.226 5.663 0.846 8.775 2.504z" fill="none"/><path d="m484.86 214.84c0.02-6e-3 -0.016 5e-3 0 0 0.408-9e-3 1.526-0.037 2.963 0.109-1.581-0.152-2.699-0.118-2.963-0.109z" fill="#7fc675" fill-rule="nonzero"/><g fill-rule="nonzero"><path d="m488.09 216.52c-1.438-0.146-2.555-0.119-2.963-0.109 6.15-2.241 11.954-2.381 13.949 0.565 0.852 1.255 1.014 2.673 0.572 3.887-0.884-0.723-1.818-1.329-2.783-1.838-3.111-1.658-6.447-2.279-8.775-2.505z" fill="#92cb78"/><path d="m499.58 221.05c-0.658 1.557-2.348 2.742-4.885 2.74-4.545-4e-3 -9.486-7.257-9.568-7.372 9.557 0.577 13.977 4.223 14.453 4.632z" fill="#6daf5c"/><path d="m499.58 221.05s-4.221-3.926-14.453-4.632c0 0 8.548-0.47 14.521 4.452l-0.068 0.18z" fill="#d0e5b2"/><path d="m485.12 216.42s8.834 0.18 14.453 4.632c0 0-2.384 7.365-14.453-4.632z" fill="#92cb78"/></g><path d="m499.33 216.25c-0.058-3.506-1.11-6.729-2.033-8.894 0.923 2.147 1.988 5.368 2.033 8.894z" fill="none"/><g fill-rule="nonzero"><path d="m497.3 207.35c-0.565-1.331-1.128-2.298-1.333-2.65 4.927 4.306 7.848 9.326 6.23 12.494-0.691 1.351-1.855 2.176-3.129 2.373 0.204-1.119 0.285-2.233 0.265-3.323-0.045-3.526-1.11-6.747-2.033-8.894z" fill="#92cb78"/><path d="m498.87 219.6c-1.683 0.175-3.532-0.729-4.755-2.958-2.187-3.983 1.785-11.811 1.848-11.935 4.101 8.65 3.035 14.28 2.907 14.893z" fill="#6daf5c"/><path d="m495.96 204.7c0.016 0.012-0.015-0.015 0 0 0.205 0.352 0.768 1.319 1.333 2.65-0.63-1.462-1.196-2.427-1.333-2.65z" fill="#7fc675"/><path d="m498.87 219.6s1.405-5.589-2.907-14.892c0 0 4.533 7.262 3.102 14.867l-0.195 0.025z" fill="#d0e5b2"/><path d="m495.96 204.7s4.102 7.828 2.907 14.892c0 0-7.602 1.463-2.907-14.892z" fill="#92cb78"/></g><path d="m502.35 214.56c1.8-3.114 4.351-5.481 6.257-6.963-1.898 1.464-4.456 3.825-6.257 6.963z" fill="none"/><g fill-rule="nonzero"><path d="m508.61 207.6c1.172-0.911 2.157-1.5 2.517-1.713-6.564 1.407-11.685 4.452-11.813 8.102-0.054 1.554 0.579 2.871 1.626 3.684 0.37-1.105 0.856-2.147 1.414-3.11 1.8-3.138 4.358-5.499 6.256-6.963z" fill="#92cb78"/><path d="m501.1 217.79c1.419 0.999 3.532 1.108 5.737-0.28 3.947-2.481 4.283-11.481 4.292-11.624-7.989 5.712-9.839 11.288-10.029 11.904z" fill="#6daf5c"/><path d="m511.13 205.89c-0.022 5e-3 0.018-4e-3 0 0-0.359 0.213-1.345 0.802-2.517 1.713 1.292-0.995 2.283-1.578 2.517-1.713z" fill="#7fc675"/><path d="m501.1 217.79s1.523-5.708 10.029-11.904c0 0-7.683 4.252-10.188 11.786l0.159 0.118z" fill="#d0e5b2"/><path d="m511.13 205.89s-7.579 4.978-10.029 11.904c0 1e-3 6.087 5.101 10.029-11.904z" fill="#92cb78"/></g><path d="m502.96 217.73c3.1-1.637 6.431-2.269 8.774-2.503-2.327 0.226-5.664 0.846-8.774 2.503z" fill="none"/><path d="m514.7 215.12c-0.018-8e-3 0.017 5e-3 0 0-0.406-0.01-1.525-0.037-2.963 0.109 1.582-0.152 2.7-0.12 2.963-0.109z" fill="#7fc675" fill-rule="nonzero"/><g fill-rule="nonzero"><path d="m511.48 216.81c1.438-0.146 2.557-0.119 2.963-0.109-6.15-2.24-11.953-2.38-13.949 0.564-0.852 1.255-1.014 2.673-0.572 3.886 0.884-0.722 1.818-1.329 2.784-1.837 3.11-1.658 6.446-2.278 8.774-2.504z" fill="#92cb78"/><path d="m499.99 221.33c0.656 1.558 2.346 2.743 4.883 2.741 4.546-5e-3 9.486-7.258 9.568-7.372-9.556 0.577-13.976 4.222-14.451 4.631z" fill="#6daf5c"/><path d="m499.99 221.33s4.22-3.925 14.451-4.631c0 0-8.548-0.471-14.521 4.451l0.07 0.18z" fill="#d0e5b2"/><path d="m514.44 216.7s-8.834 0.181-14.451 4.631c-1e-3 0 2.381 7.365 14.451-4.631z" fill="#92cb78"/></g><path d="m437.73 246.06c-2.868-0.852-5.76-0.821-7.758-0.625 1.985-0.203 4.878-0.242 7.758 0.625z" fill="none"/><g fill-rule="nonzero"><path d="m429.97 245.43c-1.228 0.118-2.158 0.327-2.499 0.401 4.77-2.899 9.603-3.988 11.763-1.861 0.924 0.909 1.296 2.066 1.129 3.157-0.857-0.458-1.744-0.81-2.635-1.072-2.881-0.867-5.774-0.828-7.758-0.625z" fill="#6daf5c"/><path d="m440.34 247.29c-0.291 1.415-1.503 2.687-3.627 3.11-3.802 0.756-9.15-4.485-9.237-4.568 8.09-1.114 12.397 1.195 12.864 1.458z" fill="#6daf5c"/><path d="m427.47 245.83c0.014-6e-3 -0.014 0.01 0 0 0.341-0.074 1.271-0.283 2.499-0.401-1.352 0.134-2.28 0.349-2.499 0.401z" fill="#7fc675"/><path d="m440.34 247.29s-4.186-2.577-12.864-1.458c0 0 7.071-1.821 12.892 1.296l-0.028 0.162z" fill="#d0e5b2"/><path d="m427.47 245.83s7.421-1.327 12.864 1.458c0 0-0.762 6.559-12.864-1.458z" fill="#6daf5c"/></g><path d="m437.49 249.36c-3.42 0.765-6.363 2.447-8.301 3.788 1.918-1.338 4.858-3.031 8.301-3.788z" fill="none"/><g fill-rule="nonzero"><path d="m429.19 253.15c-1.188 0.82-2.023 1.567-2.325 1.84 3.228-5.697 7.552-9.568 10.979-8.621 1.463 0.401 2.506 1.374 2.957 2.585-1.141 0.024-2.245 0.167-3.311 0.408-3.443 0.757-6.383 2.45-8.3 3.788z" fill="#92cb78"/><path d="m440.86 249.14c0.511 1.611-5e-3 3.609-1.938 5.254-3.463 2.945-11.929 0.634-12.063 0.6 7.647-5.762 13.373-5.857 14.001-5.854z" fill="#6daf5c"/><path d="m426.86 254.99c9e-3 -0.019-8e-3 0.011 0 0 0.302-0.273 1.138-1.02 2.325-1.84-1.302 0.911-2.132 1.66-2.325 1.84z" fill="#7fc675"/><path d="m440.86 249.14s-5.759-0.247-14.002 5.854c0 0 6.2-5.904 13.937-6.036l0.065 0.182z" fill="#d0e5b2"/><path d="m426.86 254.99s6.839-5.597 14.002-5.854c0 0 2.966 7.151-14.002 5.854z" fill="#92cb78"/></g><path d="m438.55 244.09c-2.32-2.627-5.211-4.4-7.318-5.447 2.096 1.034 4.994 2.795 7.318 5.447z" fill="none"/><g fill-rule="nonzero"><path d="m431.23 238.65c-1.293-0.647-2.35-1.017-2.732-1.152 6.543 0.08 12.021 2.004 12.848 5.466 0.35 1.473-2e-3 2.859-0.843 3.834-0.571-0.984-1.232-1.884-1.954-2.701-2.324-2.652-5.222-4.413-7.319-5.447z" fill="#92cb78"/><path d="m440.38 246.94c-1.165 1.225-3.161 1.737-5.536 0.834-4.25-1.611-6.305-10.145-6.338-10.28 8.732 3.921 11.574 8.898 11.874 9.446z" fill="#6daf5c"/><path d="m428.5 237.5c0.021 0-0.022-3e-3 0 0 0.383 0.135 1.439 0.504 2.732 1.152-1.427-0.705-2.483-1.07-2.732-1.152z" fill="#7fc675"/><path d="m440.38 246.94s-2.557-5.164-11.874-9.445c0 0 8.158 2.584 12.005 9.3l-0.131 0.145z" fill="#d0e5b2"/><path d="m428.5 237.5s8.197 3.294 11.874 9.445c0 0-4.835 6.046-11.874-9.445z" fill="#92cb78"/></g><path d="m442.1 246.72c1.574-2.539 3.754-4.437 5.378-5.622-1.616 1.17-3.802 3.062-5.378 5.622z" fill="none"/><g fill-rule="nonzero"><path d="m447.48 241.1c1-0.728 1.83-1.188 2.135-1.358-5.492 1.002-9.826 3.397-10.026 6.428-0.085 1.293 0.405 2.403 1.253 3.104 0.336-0.909 0.768-1.759 1.261-2.552 1.575-2.56 3.761-4.452 5.377-5.622z" fill="#92cb78"/><path d="m440.97 249.38c1.152 0.865 2.908 1.011 4.777-0.084 3.343-1.961 3.858-9.431 3.865-9.551-6.785 4.539-8.467 9.132-8.642 9.635z" fill="#6daf5c"/><path d="m449.61 239.74c-0.013 3e-3 0.017-2e-3 0 0-0.305 0.17-1.135 0.63-2.135 1.358 1.1-0.795 1.937-1.252 2.135-1.358z" fill="#7fc675"/><path d="m440.97 249.38s1.416-4.706 8.643-9.636c0 0-6.496 3.336-8.773 9.532l0.13 0.104z" fill="#d0e5b2"/><path d="m449.61 239.74s-6.426 3.939-8.643 9.636c1e-3 0 4.928 4.397 8.643-9.636z" fill="#92cb78"/></g><path d="m521.71 271.18c2.9 1.646 4.788 3.653 5.889 5.108-1.084-1.447-2.959-3.458-5.889-5.108z" fill="none"/><g fill-rule="nonzero"><path d="m527.6 276.29c0.678 0.896 1.052 1.62 1.188 1.883 0.227-4.428-1.709-8.191-5.639-8.849-1.676-0.279-3.277-0.084-4.441 0.458 1.104 0.414 2.104 0.889 3.004 1.399 2.929 1.65 4.804 3.661 5.888 5.109z" fill="#6daf5c"/><path d="m518.54 269.86c-1.464 0.752-2.147 2.089-1.23 3.722 1.641 2.921 11.328 4.559 11.48 4.585-4.067-6.02-9.635-8.087-10.25-8.307z" fill="#6daf5c"/><path d="m528.78 278.17v0c-0.136-0.263-0.51-0.987-1.188-1.883 0.738 0.987 1.104 1.712 1.188 1.883z" fill="#7fc675"/><path d="m518.54 269.86s5.795 1.879 10.25 8.307c0 0-2.563-5.594-10.08-8.391l-0.17 0.084z" fill="#d0e5b2"/><path d="m528.78 278.17s-3.377-5.641-10.25-8.307c0 0-7.172 3.095 10.25 8.307z" fill="#6daf5c"/></g><path d="m475.58 265.06c-2.694-1.963-5.303-2.854-7.082-3.258 1.764 0.391 4.371 1.271 7.082 3.258z" fill="none"/><g fill-rule="nonzero"><path d="m468.5 261.8c-1.096-0.246-1.91-0.29-2.206-0.302 3.94-2.037 8.167-1.825 10.389 1.483 0.944 1.41 1.427 2.95 1.415 4.235-0.833-0.836-1.679-1.55-2.516-2.159-2.711-1.986-5.318-2.866-7.082-3.257z" fill="#6daf5c"/><path d="m478.09 267.41c-0.082 1.644-1.017 2.817-2.881 2.658-3.338-0.29-8.826-8.438-8.915-8.565 7.163 1.218 11.342 5.436 11.796 5.907z" fill="#6daf5c"/><path d="m466.29 261.5c0.013-7e-3 -0.012 5e-3 0 0 0.296 0.012 1.11 0.056 2.206 0.302-1.203-0.262-2.015-0.298-2.206-0.302z" fill="#7fc675"/><path d="m478.09 267.41s-4.102-4.505-11.796-5.908c0 0 6.154 0.024 11.804 5.719l-8e-3 0.189z" fill="#d0e5b2"/><path d="m466.29 261.5s6.532 0.749 11.796 5.908c0 0 0.142 7.81-11.796-5.908z" fill="#6daf5c"/></g><path d="m451.75 260.12c-3.25 0.936-5.986 2.724-7.771 4.124 1.765-1.4 4.496-3.196 7.771-4.124z" fill="none"/><g fill-rule="nonzero"><path d="m443.98 264.24c-1.1 0.863-1.861 1.626-2.133 1.904 2.773-5.663 6.715-9.643 10.07-8.932 1.434 0.305 2.49 1.181 2.99 2.319-1.092 0.086-2.15 0.295-3.156 0.585-3.274 0.928-6.005 2.724-7.771 4.124z" fill="#92cb78"/><path d="m454.99 259.71c0.586 1.521 0.205 3.472-1.563 5.169-3.163 3.036-11.448 1.299-11.576 1.27 7.02-5.984 12.534-6.406 13.139-6.439z" fill="#6daf5c"/><path d="m441.85 266.15c3e-3 -0.015-0.012 0.022 0 0 0.271-0.278 1.033-1.042 2.133-1.904-1.202 0.95-1.962 1.724-2.133 1.904z" fill="#7fc675"/><path d="m454.99 259.71s-5.557 0.092-13.139 6.439c0 0 5.62-6.038 13.061-6.613l0.078 0.174z" fill="#d0e5b2"/><path d="m441.85 266.15s6.258-5.778 13.139-6.439c-1e-3 0 3.266 6.709-13.139 6.439z" fill="#92cb78"/></g></g></svg>
