<?xml version="1.0" encoding="UTF-8"?>
<svg clip-rule="evenodd" fill-rule="evenodd" stroke-linejoin="round" stroke-miterlimit="2" version="1.1" viewBox="0 0 214 291" xml:space="preserve" xmlns="http://www.w3.org/2000/svg"><g transform="matrix(1.6946 0 0 1.6946 -254.47 -361.25)"><g transform="translate(0 11.676)"><ellipse cx="213.31" cy="365.52" rx="40.616" ry="7.676" fill="#5b4338"/></g><g transform="translate(0 11.676)"><path d="m208.04 345.39c0.445 1.386 4.995 13.618 6.515 17.744-0.745 0.508-1.634 0.838-2.616 0.921-0.59 0.052-1.164 0.01-1.707-0.114-0.579-1.893-3.086-10.123-3.376-10.857-2.802-7.182-14.088-45.368 9.565-36.191l-0.548 2.108c-4.852-3.48-17.78-4.473-7.833 26.389z" fill="#6daf5c" fill-rule="nonzero"/><path d="m217.69 319.93c4.588 4.413 7.574 9.801 9.315 13.705-1.712-3.885-4.681-9.281-9.315-13.705z" fill="none"/><g fill-rule="nonzero"><path d="m227.01 333.64c1.071 2.4 1.663 4.342 1.878 5.051 0.359-11.881-2.705-21.975-8.919-23.738-2.653-0.754-5.186-0.229-7.027 1.226 1.746 1.11 3.327 2.386 4.752 3.757 4.634 4.423 7.603 9.819 9.316 13.704z" fill="#92cb78"/><path d="m212.67 316.4c-2.316 2.022-3.397 5.605-1.946 9.986 2.595 7.836 17.921 12.231 18.164 12.303-6.437-16.154-15.242-21.7-16.218-22.289z" fill="#6daf5c"/><path d="m228.88 338.69c1e-3 -0.036-1e-3 0.035 0 0-0.215-0.709-0.807-2.65-1.878-5.051 1.165 2.642 1.745 4.59 1.878 5.051z" fill="#7fc675"/><path d="m212.67 316.4s9.172 5.042 16.218 22.289c0 0-4.055-15.01-15.946-22.513l-0.272 0.224z" fill="#d0e5b2"/></g><g fill="#92cb78" fill-rule="nonzero"><path d="m228.88 338.69s-5.343-15.136-16.218-22.289c0-1e-3 -11.347 8.304 16.218 22.289z"/><path d="m214.52 363.13s-7.523-20.237-7.537-21.271c0 0-1.772 3.896-1.295 7.958l4.51 14.12c-1e-3 -1e-3 2.357 0.552 4.322-0.807z"/><path d="m213.31 315.9l-1.592 1.461s-2.128-1.779-6.623-0.22c0 1e-3 2.462-2.749 8.215-1.241z"/></g></g></g></svg>
