<?xml version="1.0" encoding="UTF-8"?>
<svg clip-rule="evenodd" fill-rule="evenodd" stroke-linejoin="round" stroke-miterlimit="2" version="1.1" viewBox="0 0 214 291" xml:space="preserve" xmlns="http://www.w3.org/2000/svg"><g transform="matrix(1.5893 0 0 1.5893 -62.428 -307.32)" fill-rule="nonzero"><path d="m83.939 363.96c2.456 6.398 7.613 8.924 18.744 4.651 11.129-4.271 16.03-12.558 13.574-18.955-2.456-6.398-8.964-7.428-20.093-3.156-11.13 4.273-14.681 11.062-12.225 17.46z" fill="#6b5141"/><path d="m102.69 368.62c-6.297 2.414-10.682 2.657-13.748 1.257 3.014-0.016 6.69-0.817 11.173-2.539 9.497-3.64 15.216-9.725 16.664-15.697 0.893 6.044-4.075 13.137-14.089 16.979z" fill="#493830"/><path d="m113.6 346.37s7.692-7.007 7.491-27.775c0 0 3.895 18.499-5.813 29.258l-1.678-1.483z" fill="#7fc675"/><path d="m93.645 361.43c8.459-2.512 15.611-7.305 21.638-13.572 0.387-0.402-1.213-1.973-1.502-1.672-5.657 5.883-12.365 12.273-20.3 14.63-0.378 0.112-0.219 0.727 0.164 0.614z" fill="#d38952"/></g></svg>
