<?xml version="1.0" encoding="UTF-8"?>
<svg clip-rule="evenodd" fill-rule="evenodd" stroke-linejoin="round" stroke-miterlimit="2" version="1.1" viewBox="0 0 214 291" xml:space="preserve" xmlns="http://www.w3.org/2000/svg"><g transform="matrix(1.4974 0 0 1.4974 -404.97 -267.88)"><ellipse cx="341.9" cy="365.52" rx="40.616" ry="7.676" fill="#5b4338"/><g fill="#936953" fill-rule="nonzero"><path d="m338.18 365.32l3.353-65.883 1.318 3e-3s1.344 44.633 0.387 65.88h-5.058z"/><path d="m342.85 324.91s2.197-12.883 17.707-11.849v0.517s-13.442-1.293-17.707 17.579v-6.247z"/><path d="m340.89 343.56s-1.527-15.511-15.659-19.475v1.033s9.565 2.758 15.08 21.026l0.579-2.584z"/></g><path d="m359.34 311.1c5.898-2.396 12.034-2.932 16.31-2.936-4.246-0.015-10.383 0.502-16.31 2.936z" fill="none"/><g fill-rule="nonzero"><path d="m375.65 308.16c2.628-2e-3 4.642 0.246 5.377 0.338-10.708-5.161-21.175-6.468-25.315-1.507-1.766 2.118-2.314 4.645-1.737 6.918 1.723-1.144 3.533-2.068 5.366-2.813 5.926-2.434 12.063-2.951 16.309-2.936z" fill="#92cb78"/><path d="m354.07 314.25c0.904 2.938 3.737 5.383 8.33 5.84 8.215 0.816 18.463-11.396 18.627-11.59-17.375-0.689-26.024 5.1-26.957 5.75z" fill="#6daf5c"/><path d="m381.03 308.5c-0.032-0.016 0.032 0.016 0 0-0.735-0.092-2.749-0.34-5.377-0.338 2.889 0.01 4.903 0.272 5.377 0.338z" fill="#7fc675"/><path d="m354.07 314.25s8.334-6.328 26.957-5.75c0 0-15.361-2.4-27.053 5.411l0.096 0.339z" fill="#d0e5b2"/><path d="m381.03 308.5s-16-1.275-26.957 5.75c0 0 2.97 13.745 26.957-5.75z" fill="#92cb78"/></g><path d="m326.26 322.18c-4.796-4.187-10.424-6.691-14.465-8.086 4.019 1.369 9.654 3.855 14.465 8.086z" fill="none"/><g fill-rule="nonzero"><path d="m311.79 314.1c-2.484-0.857-4.471-1.278-5.194-1.431 11.805-1.394 22.127 0.778 24.425 6.815 0.981 2.578 0.678 5.146-0.609 7.107-1.257-1.643-2.666-3.105-4.156-4.406-4.812-4.23-10.447-6.716-14.466-8.085z" fill="#92cb78"/><path d="m330.21 326.88c-1.812 2.483-5.287 3.872-9.778 2.81-8.032-1.902-13.747-16.787-13.838-17.022 16.653 5.003 22.946 13.291 23.616 14.212z" fill="#6daf5c"/><path d="m306.6 312.67c0.035-5e-3 -0.035 3e-3 0 0 0.724 0.152 2.71 0.573 5.194 1.431-2.734-0.931-4.724-1.339-5.194-1.431z" fill="#7fc675"/><path d="m330.21 326.88s-5.82-8.696-23.616-14.213c0 0 15.305 2.73 23.816 13.923l-0.2 0.29z" fill="#d0e5b2"/><path d="m306.6 312.67s15.542 4.003 23.616 14.213c0 0-7.283 12.029-23.616-14.213z" fill="#92cb78"/></g><path d="m343.19 294.84c1.956-6.059 5.489-11.104 8.234-14.381-2.74 3.244-6.289 8.278-8.234 14.381z" fill="none"/><g fill-rule="nonzero"><path d="m351.43 280.46c1.688-2.015 3.174-3.398 3.715-3.902-10.836 4.885-18.563 12.063-17.426 18.423 0.487 2.714 2.07 4.761 4.184 5.778 0.23-2.056 0.686-4.036 1.293-5.918 1.945-6.104 5.494-11.138 8.234-14.381z" fill="#6daf5c"/><path d="m342.22 300.9c2.832 1.196 6.525 0.598 9.828-2.627 5.905-5.768 3.138-21.469 3.094-21.719-11.697 12.867-12.821 23.214-12.922 24.346z" fill="#6daf5c"/><path d="m355.14 276.55c-0.031 0.015 0.033-0.014 0 0-0.541 0.504-2.027 1.887-3.715 3.902 1.865-2.206 3.36-3.581 3.715-3.902z" fill="#7fc675"/><path d="m342.22 300.9s0.51-10.452 12.921-24.346c0 0-11.712 10.224-13.242 24.202l0.321 0.144z" fill="#d0e5b2"/><path d="m355.14 276.55s-11.259 11.437-12.921 24.346c0 0 12.438 6.56 12.921-24.346z" fill="#6daf5c"/></g><path d="m341.99 314.1s0.323-9.664-5.247-16.212l-0.739 0.781s3.43 0.02 4.901 18.146l1.085-2.715z" fill="#936953" fill-rule="nonzero"/><path d="m335.94 294.53c-2.879-5.679-7.158-10.108-10.382-12.915 3.214 2.774 7.505 7.191 10.382 12.915z" fill="none"/><g fill-rule="nonzero"><path d="m325.56 281.61c-1.982-1.727-3.667-2.861-4.281-3.273 11.467 3.13 20.224 9.011 20.094 15.471-0.056 2.756-1.299 5.025-3.228 6.361-0.549-1.995-1.308-3.879-2.203-5.644-2.878-5.724-7.169-10.141-10.382-12.915z" fill="#92cb78"/><path d="m337.85 300.36c-2.61 1.624-6.352 1.609-10.117-1.059-6.735-4.772-6.458-20.713-6.455-20.967 13.565 10.879 16.296 20.921 16.572 22.026z" fill="#6daf5c"/><path d="m321.28 278.34c0.035 0.01-0.034-0.01 0 0 0.614 0.412 2.299 1.546 4.281 3.273-2.187-1.888-3.879-3.012-4.281-3.273z" fill="#7fc675"/><path d="m337.85 300.36s-2.139-10.245-16.572-22.025c0 0 13.168 8.266 16.866 21.832l-0.294 0.193z" fill="#d0e5b2"/><path d="m321.28 278.34s12.911 9.535 16.572 22.025c0 0-11.259 8.424-16.572-22.025z" fill="#92cb78"/></g></g></svg>
